<svg width="33" height="32" viewBox="0 0 33 32" fill="none" xmlns="http://www.w3.org/2000/svg">
    <path d="M24.4062 3.96875C23.3593 3.96875 22.3132 4.37432 21.5 5.1875L5.90625 20.7812L5.6875 21L5.625 21.3125L4.53125 26.8125L4.21875 28.2812L5.6875 27.9688L11.1875 26.875L11.5 26.8125L11.7188 26.5938L27.3125 11C28.9389 9.37364 28.9389 6.81386 27.3125 5.1875C26.4993 4.37432 25.4532 3.96875 24.4062 3.96875ZM24.4062 5.875C24.9093 5.875 25.4194 6.10693 25.9062 6.59375C26.8799 7.56739 26.8799 8.62011 25.9062 9.59375L25.1875 10.2812L22.2188 7.3125L22.9062 6.59375C23.3931 6.10693 23.9032 5.875 24.4062 5.875ZM20.8125 8.71875L23.7812 11.6875L11.6875 23.7812C11.0331 22.5007 9.99934 21.4669 8.71875 20.8125L20.8125 8.71875ZM7.4375 22.4375C8.63658 22.9234 9.57661 23.8634 10.0625 25.0625L6.78125 25.7188L7.4375 22.4375Z"
          fill="white"/>
</svg>
