<svg width="120" height="120" viewBox="0 0 120 120" fill="none" xmlns="http://www.w3.org/2000/svg">
<rect width="120" height="120" fill="url(#paint0_linear_2947_153)"/>
<path d="M16.552 77V42.92H23.176V77H16.552ZM30.2864 77V42.92H44.7344C46.3024 42.92 47.7424 43.24 49.0544 43.88C50.3664 44.52 51.5024 45.384 52.4624 46.472C53.4544 47.56 54.2224 48.776 54.7664 50.12C55.3104 51.464 55.5824 52.84 55.5824 54.248C55.5824 56.168 55.1344 57.992 54.2384 59.72C53.3424 61.448 52.1104 62.856 50.5424 63.944C48.9744 65.032 47.1184 65.576 44.9744 65.576H36.9104V77H30.2864ZM36.9104 59.768H44.5904C45.3904 59.768 46.1104 59.544 46.7504 59.096C47.3904 58.648 47.9024 58.008 48.2864 57.176C48.6704 56.312 48.8624 55.336 48.8624 54.248C48.8624 53.064 48.6384 52.056 48.1904 51.224C47.7744 50.392 47.2144 49.768 46.5104 49.352C45.8384 48.936 45.1024 48.728 44.3024 48.728H36.9104V59.768ZM71.341 43.016H77.485L81.373 54.296L85.309 43.016H91.405L85.549 58.52L89.869 69.368L99.517 42.92H106.717L93.085 77H87.373L81.373 62.696L75.421 77H69.709L56.125 42.92H63.229L72.925 69.368L77.149 58.52L71.341 43.016Z" fill="white"/>
<defs>
<linearGradient id="paint0_linear_2947_153" x1="120" y1="-3.5" x2="6.58061e-06" y2="120" gradientUnits="userSpaceOnUse">
<stop stop-color="#0066FF" stop-opacity="0.78"/>
<stop offset="1" stop-color="#63A1FF" stop-opacity="0.78"/>
<stop offset="1" stop-color="#63A1FF" stop-opacity="0.78"/>
</linearGradient>
</defs>
</svg>
