<svg width="20" height="20" viewBox="0 0 20 20" fill="none" xmlns="http://www.w3.org/2000/svg">
<g clip-path="url(#clip0_214_661)">
<mask id="path-1-inside-1_214_661" fill="white">
<path fill-rule="evenodd" clip-rule="evenodd" d="M15.2075 11.175C15.87 9.83375 16.25 8.5775 16.25 7.5C16.25 5.8424 15.5915 4.25269 14.4194 3.08058C13.2473 1.90848 11.6576 1.25 10 1.25C8.3424 1.25 6.75269 1.90848 5.58058 3.08058C4.40848 4.25269 3.75 5.8424 3.75 7.5C3.75 8.5775 4.13125 9.83375 4.7925 11.175C5.4475 12.5025 6.335 13.825 7.2425 15.0125C8.10336 16.132 9.02385 17.2044 10 18.225L10.26 17.95C11.14 17.0122 11.9735 16.0319 12.7575 15.0125C13.665 13.825 14.5525 12.5025 15.2075 11.175ZM10 20C10 20 17.5 12.8925 17.5 7.5C17.5 5.51088 16.7098 3.60322 15.3033 2.1967C13.8968 0.790176 11.9891 0 10 0C8.01088 0 6.10322 0.790176 4.6967 2.1967C3.29018 3.60322 2.5 5.51088 2.5 7.5C2.5 12.8925 10 20 10 20Z"/>
</mask>
<path fill-rule="evenodd" clip-rule="evenodd" d="M15.2075 11.175C15.87 9.83375 16.25 8.5775 16.25 7.5C16.25 5.8424 15.5915 4.25269 14.4194 3.08058C13.2473 1.90848 11.6576 1.25 10 1.25C8.3424 1.25 6.75269 1.90848 5.58058 3.08058C4.40848 4.25269 3.75 5.8424 3.75 7.5C3.75 8.5775 4.13125 9.83375 4.7925 11.175C5.4475 12.5025 6.335 13.825 7.2425 15.0125C8.10336 16.132 9.02385 17.2044 10 18.225L10.26 17.95C11.14 17.0122 11.9735 16.0319 12.7575 15.0125C13.665 13.825 14.5525 12.5025 15.2075 11.175ZM10 20C10 20 17.5 12.8925 17.5 7.5C17.5 5.51088 16.7098 3.60322 15.3033 2.1967C13.8968 0.790176 11.9891 0 10 0C8.01088 0 6.10322 0.790176 4.6967 2.1967C3.29018 3.60322 2.5 5.51088 2.5 7.5C2.5 12.8925 10 20 10 20Z" fill="white"/>
<path d="M15.2075 11.175L13.4143 10.2893L13.4139 10.29L15.2075 11.175ZM16.25 7.5L18.25 7.5L16.25 7.5ZM3.75 7.5L1.75 7.5L3.75 7.5ZM4.7925 11.175L2.99866 12.0594L2.99894 12.06L4.7925 11.175ZM7.2425 15.0125L5.6534 16.2269L5.65703 16.2316L7.2425 15.0125ZM10 18.225L8.55468 19.6074L10.0084 21.1273L11.4533 19.599L10 18.225ZM10.26 17.95L11.7133 19.324L11.7184 19.3185L10.26 17.95ZM12.7575 15.0125L14.3428 16.2318L14.3466 16.2269L12.7575 15.0125ZM10 20L8.62428 21.4517L10 22.7554L11.3757 21.4517L10 20ZM17.5 7.5H19.5V7.5L17.5 7.5ZM2.5 7.5L0.5 7.5V7.5H2.5ZM17.0007 12.0607C17.73 10.5842 18.25 9.01001 18.25 7.5H14.25C14.25 8.14499 14.01 9.08329 13.4143 10.2893L17.0007 12.0607ZM18.25 7.5C18.25 5.31196 17.3808 3.21354 15.8336 1.66637L13.0052 4.4948C13.8022 5.29183 14.25 6.37283 14.25 7.5L18.25 7.5ZM15.8336 1.66637C14.2865 0.119194 12.188 -0.75 10 -0.75V3.25C11.1272 3.25 12.2082 3.69777 13.0052 4.4948L15.8336 1.66637ZM10 -0.75C7.81196 -0.75 5.71354 0.119194 4.16637 1.66637L6.9948 4.4948C7.79183 3.69777 8.87283 3.25 10 3.25V-0.75ZM4.16637 1.66637C2.61919 3.21354 1.75 5.31196 1.75 7.5L5.75 7.5C5.75 6.37283 6.19777 5.29183 6.9948 4.4948L4.16637 1.66637ZM1.75 7.5C1.75 9.01076 2.27182 10.5851 2.99866 12.0594L6.58634 10.2906C5.99068 9.08239 5.75 8.14424 5.75 7.5L1.75 7.5ZM2.99894 12.06C3.73128 13.5442 4.70054 14.98 5.6534 16.2269L8.8316 13.7981C7.96946 12.67 7.16372 11.4608 6.58606 10.29L2.99894 12.06ZM5.65703 16.2316C6.56164 17.4081 7.52892 18.535 8.55468 19.6074L11.4453 16.8426C10.5188 15.8739 9.64508 14.856 8.82797 13.7934L5.65703 16.2316ZM11.4533 19.599L11.7133 19.324L8.8067 16.576L8.5467 16.851L11.4533 19.599ZM11.7184 19.3185C12.6431 18.3331 13.519 17.303 14.3428 16.2318L11.1722 13.7932C10.428 14.7608 9.63683 15.6913 8.80155 16.5814L11.7184 19.3185ZM14.3466 16.2269C15.2995 14.98 16.2687 13.5442 17.0011 12.06L13.4139 10.29C12.8363 11.4608 12.0305 12.67 11.1684 13.7981L14.3466 16.2269ZM10 20C11.3757 21.4517 11.376 21.4514 11.3763 21.4511C11.3765 21.451 11.3768 21.4506 11.3771 21.4503C11.3777 21.4498 11.3784 21.4491 11.3792 21.4483C11.3809 21.4468 11.383 21.4448 11.3855 21.4424C11.3906 21.4376 11.3974 21.431 11.406 21.4228C11.4232 21.4063 11.4473 21.383 11.478 21.3533C11.5392 21.2938 11.6263 21.2083 11.7358 21.099C11.9546 20.8804 12.2631 20.5658 12.6315 20.1725C13.3661 19.3883 14.3498 18.2797 15.3385 16.9874C16.3226 15.701 17.3415 14.1938 18.1216 12.6132C18.8909 11.0545 19.5 9.28115 19.5 7.5H15.5C15.5 8.4151 15.1716 9.55233 14.5347 10.8429C13.9085 12.1116 13.0524 13.3924 12.1615 14.557C11.2752 15.7156 10.3839 16.7209 9.71227 17.4379C9.37756 17.7952 9.10013 18.078 8.90874 18.2692C8.81312 18.3647 8.73916 18.4372 8.69051 18.4845C8.66618 18.5081 8.6482 18.5254 8.637 18.5361C8.63141 18.5415 8.62751 18.5452 8.62537 18.5473C8.6243 18.5483 8.62367 18.5489 8.62349 18.5491C8.6234 18.5492 8.62342 18.5491 8.62355 18.549C8.62361 18.5489 8.6238 18.5488 8.62383 18.5487C8.62404 18.5485 8.62428 18.5483 10 20ZM19.5 7.5C19.5 4.98044 18.4991 2.56408 16.7175 0.782486L13.8891 3.61091C14.9205 4.64236 15.5 6.04131 15.5 7.5L19.5 7.5ZM16.7175 0.782486C14.9359 -0.99911 12.5196 -2 10 -2V2C11.4587 2 12.8576 2.57946 13.8891 3.61091L16.7175 0.782486ZM10 -2C7.48044 -2 5.06408 -0.99911 3.28249 0.782486L6.11091 3.61091C7.14236 2.57946 8.54131 2 10 2V-2ZM3.28249 0.782486C1.50089 2.56408 0.5 4.98044 0.5 7.5L4.5 7.5C4.5 6.04131 5.07946 4.64236 6.11091 3.61091L3.28249 0.782486ZM0.5 7.5C0.5 9.28115 1.10913 11.0545 1.87841 12.6132C2.6585 14.1938 3.67742 15.701 4.66152 16.9874C5.65016 18.2797 6.63387 19.3883 7.36852 20.1725C7.73693 20.5658 8.04544 20.8804 8.26421 21.099C8.37366 21.2083 8.46084 21.2938 8.52205 21.3533C8.55266 21.383 8.57679 21.4063 8.59397 21.4228C8.60257 21.431 8.60943 21.4376 8.6145 21.4424C8.61704 21.4448 8.61912 21.4468 8.62076 21.4483C8.62157 21.4491 8.62227 21.4498 8.62286 21.4503C8.62316 21.4506 8.62351 21.451 8.62366 21.4511C8.62399 21.4514 8.62428 21.4517 10 20C11.3757 18.5483 11.376 18.5485 11.3762 18.5487C11.3762 18.5488 11.3764 18.5489 11.3765 18.549C11.3766 18.5491 11.3766 18.5492 11.3765 18.5491C11.3763 18.5489 11.3757 18.5483 11.3746 18.5473C11.3725 18.5452 11.3686 18.5415 11.363 18.5361C11.3518 18.5254 11.3338 18.5081 11.3095 18.4845C11.2608 18.4372 11.1869 18.3647 11.0913 18.2692C10.8999 18.078 10.6224 17.7952 10.2877 17.4379C9.61613 16.7209 8.72484 15.7156 7.83848 14.557C6.94758 13.3924 6.0915 12.1116 5.46534 10.8429C4.82837 9.55233 4.5 8.4151 4.5 7.5H0.5Z" fill="white" mask="url(#path-1-inside-1_214_661)"/>
<path fill-rule="evenodd" clip-rule="evenodd" d="M10 10C10.663 10 11.2989 9.73661 11.7678 9.26777C12.2366 8.79893 12.5 8.16304 12.5 7.5C12.5 6.83696 12.2366 6.20107 11.7678 5.73223C11.2989 5.26339 10.663 5 10 5C9.33696 5 8.70107 5.26339 8.23223 5.73223C7.76339 6.20107 7.5 6.83696 7.5 7.5C7.5 8.16304 7.76339 8.79893 8.23223 9.26777C8.70107 9.73661 9.33696 10 10 10ZM10 11.25C10.9946 11.25 11.9484 10.8549 12.6517 10.1517C13.3549 9.44839 13.75 8.49456 13.75 7.5C13.75 6.50544 13.3549 5.55161 12.6517 4.84835C11.9484 4.14509 10.9946 3.75 10 3.75C9.00544 3.75 8.05161 4.14509 7.34835 4.84835C6.64509 5.55161 6.25 6.50544 6.25 7.5C6.25 8.49456 6.64509 9.44839 7.34835 10.1517C8.05161 10.8549 9.00544 11.25 10 11.25Z" fill="white"/>
</g>
<defs>
<clipPath id="clip0_214_661">
<rect width="20" height="20" fill="white"/>
</clipPath>
</defs>
</svg>
