<svg width="60" height="60" viewBox="0 0 60 60" fill="none" xmlns="http://www.w3.org/2000/svg">
<path d="M48.75 13.125H42.2531L39.0586 8.33438C38.8874 8.07786 38.6557 7.86751 38.3838 7.72197C38.1119 7.57643 37.8084 7.50019 37.5 7.5H22.5C22.1916 7.50019 21.8881 7.57643 21.6162 7.72197C21.3443 7.86751 21.1126 8.07786 20.9414 8.33438L17.7445 13.125H11.25C9.75816 13.125 8.32742 13.7176 7.27252 14.7725C6.21763 15.8274 5.625 17.2582 5.625 18.75V45C5.625 46.4918 6.21763 47.9226 7.27252 48.9775C8.32742 50.0324 9.75816 50.625 11.25 50.625H48.75C50.2418 50.625 51.6726 50.0324 52.7275 48.9775C53.7824 47.9226 54.375 46.4918 54.375 45V18.75C54.375 17.2582 53.7824 15.8274 52.7275 14.7725C51.6726 13.7176 50.2418 13.125 48.75 13.125ZM50.625 45C50.625 45.4973 50.4275 45.9742 50.0758 46.3258C49.7242 46.6775 49.2473 46.875 48.75 46.875H11.25C10.7527 46.875 10.2758 46.6775 9.92418 46.3258C9.57254 45.9742 9.375 45.4973 9.375 45V18.75C9.375 18.2527 9.57254 17.7758 9.92418 17.4242C10.2758 17.0725 10.7527 16.875 11.25 16.875H18.75C19.0588 16.8752 19.3628 16.7991 19.6351 16.6536C19.9074 16.508 20.1396 16.2975 20.3109 16.0406L23.5031 11.25H36.4945L39.6891 16.0406C39.8604 16.2975 40.0926 16.508 40.3649 16.6536C40.6372 16.7991 40.9412 16.8752 41.25 16.875H48.75C49.2473 16.875 49.7242 17.0725 50.0758 17.4242C50.4275 17.7758 50.625 18.2527 50.625 18.75V45ZM30 20.625C27.9604 20.625 25.9666 21.2298 24.2707 22.363C22.5748 23.4961 21.253 25.1067 20.4725 26.9911C19.692 28.8754 19.4877 30.9489 19.8857 32.9494C20.2836 34.9498 21.2657 36.7873 22.708 38.2295C24.1502 39.6718 25.9877 40.6539 27.9881 41.0518C29.9886 41.4498 32.0621 41.2455 33.9464 40.465C35.8308 39.6845 37.4414 38.3627 38.5745 36.6668C39.7077 34.9709 40.3125 32.9771 40.3125 30.9375C40.3094 28.2034 39.2219 25.5822 37.2886 23.6489C35.3553 21.7156 32.7341 20.6281 30 20.625ZM30 37.5C28.7021 37.5 27.4333 37.1151 26.3541 36.394C25.2749 35.6729 24.4337 34.648 23.937 33.4489C23.4403 32.2497 23.3104 30.9302 23.5636 29.6572C23.8168 28.3842 24.4418 27.2149 25.3596 26.2971C26.2774 25.3793 27.4467 24.7543 28.7197 24.5011C29.9927 24.2479 31.3122 24.3778 32.5114 24.8745C33.7105 25.3712 34.7354 26.2124 35.4565 27.2916C36.1776 28.3708 36.5625 29.6396 36.5625 30.9375C36.5625 32.678 35.8711 34.3472 34.6404 35.5779C33.4097 36.8086 31.7405 37.5 30 37.5Z" fill="black" fill-opacity="0.2"/>
</svg>
