<svg width="20" height="20" viewBox="0 0 20 20" fill="none" xmlns="http://www.w3.org/2000/svg">
<path d="M9.99984 13.3333C11.8408 13.3333 13.3332 11.8409 13.3332 10C13.3332 8.15905 11.8408 6.66666 9.99984 6.66666C8.15889 6.66666 6.6665 8.15905 6.6665 10C6.6665 11.8409 8.15889 13.3333 9.99984 13.3333Z" stroke="white" stroke-linecap="round" stroke-linejoin="round"/>
<path d="M13.3332 6.66667V10.8333C13.3332 11.4964 13.5966 12.1323 14.0654 12.6011C14.5343 13.0699 15.1701 13.3333 15.8332 13.3333C16.4962 13.3333 17.1321 13.0699 17.6009 12.6011C18.0698 12.1323 18.3332 11.4964 18.3332 10.8333V10C18.3331 8.11919 17.6967 6.29373 16.5276 4.82044C15.3584 3.34715 13.7253 2.31269 11.8937 1.88525C10.0621 1.45781 8.13979 1.66253 6.4393 2.46614C4.73881 3.26974 3.36018 4.62496 2.52756 6.31144C1.69494 7.99791 1.45732 9.91645 1.85332 11.7551C2.24932 13.5937 3.25566 15.2444 4.7087 16.4386C6.16175 17.6328 7.97604 18.3003 9.85657 18.3326C11.7371 18.365 13.5733 17.7602 15.0665 16.6167" stroke="white" stroke-linecap="round" stroke-linejoin="round"/>
</svg>
